<svg version="1.1" id="Layer_1" xmlns="http://www.w3.org/2000/svg" x="0" y="0" viewBox="0 0 235.3 119.1" width="235.3" height="119.1" style="enable-background:new 0 0 235.3 119.1" xml:space="preserve"><style>.st0{fill:#c9404a}.st1{fill:#fff}</style><path class="st0" d="M0 0h113.5v119.1H0z"/><path class="st1" d="M49.6 79.7c-.2-1.3 2.4-2 2.6-1.2.1.2.1.3.1.4-.1 1.9-2.7 1.5-2.7.8zM69.4 63.2c0 2-2.7 3.9-6.5 3.9-1.6 0-3.5-.3-4.6-.9-2.9-1.5-6.3-2.2-9.8-2.2-5.2 0-9.6-.1-12.8 3.2 3.2-2 7.3-1.3 11.7-1.3 5.4 0 7.3.9 10.1 2.3 1.4.7 3.1 1.3 4.9 1.3 4.5 0 8.2-2.8 8.2-6.2 0-3.4-3.7-6.2-8.2-6.2-1.8 0-3.5.6-4.9 1.3-2.9 1.4-4.7 2.3-10.1 2.3-4.5 0-8.6.7-11.7-1.3 3.2 3.3 7.6 3.2 12.8 3.2 3.5 0 7-.7 9.8-2.2 1.4-.7 3-.9 4.6-.9 3.8-.2 6.5 1.7 6.5 3.7z"/><path class="st1" d="M72 63.2c0-4.3-4.3-7.9-9.5-7.9-2 0-3.9.6-5.5 1.4-2.4 1.3-6 2.4-8.2 2.4-2 0-4.2 0-6.1-.5-2.3-.6-3.2-1.8-4.6-3.3 2.5 1.7 5.7 1.8 9.3 1.8 3.4 0 6.5-.9 8.9-2.3 1.8-1.1 3.9-1.8 6.1-1.8 6 0 10.9 4.5 10.9 10.1s-4.9 10.1-10.9 10.1c-2.3 0-4.4-.7-6.1-1.8-2.4-1.4-5.5-2.3-8.9-2.3-3.7 0-6.9.2-9.3 1.8 1.4-1.6 2.3-2.8 4.6-3.3 1.9-.5 4.1-.5 6.1-.5 2.2 0 5.8 1.1 8.2 2.4 1.6.9 3.4 1.4 5.5 1.4 5.2.2 9.5-3.4 9.5-7.7z"/><path class="st1" d="M57 63.6c-.6.6-1.5 1.1-1.5 1.1v-3s.8.5 1.5 1.1c1.9-.7 3.6-1.3 5.9-1.3 3.7 0 4.4 1.7 4.4 1.7s-.7 1.7-4.4 1.7c-2.2 0-4-.6-5.9-1.3zM65.8 81.2c-.1 0-.2.1-.4.2-2.8-1.3-5.5 2.2-5.6 2.4-.3.5-.6.9-.8 1.3-.2.4-1.6.8-1.8.5-.1-.1-.1-.2-.1-.4 0-.1.6-.9.7-1l1-1.2c.3-.4.5-.6.5-.7.2-.3.3-.6.2-.8-.4-.7-1.8-.2-2.4.1l-.4.4c-.3.2-.3.2-.5.3-.1.1-.4.2-.3.1.1-.2.3-.6.5-.8-.1-.1-.2-.1-.3-.1h-2.2c-.2.1-.6.6-1.4 1.6L51 84.7c-.5.4-1.7 1.2-2 1-.1-.1-.2-.2-.2-.3.1-.4.7-1.4 1.8-2.7.4-.5.8-1.2 1-1.3h-2.5c-.1.1-.7 1-1.8 2.5-.5.7-.7 1-.7 1.1l-.2.3-.2.3c-.6.8-1.7 1-2.2.5-.2-.2-.4-.5-.4-.7.1-.1.3-.1.4-.2 1.3-.5 2.1-1.3 2.3-2.4.2-1.1-.5-1.7-2-1.4-.3 0-.4.1-.7.2-.1 0 .2-.2.2-.4.1-.2 2.3-3.4 2.4-3.5 1.5-2 2.6-3.3 2.8-3.6h-2.7c-.1.1-.6.6-1.4 1.6-1.3 1.5-2.4 3.1-3.5 4.8-.9 1.4-1.7 2.8-2.2 4.1-.8 1.8-1.8 2.2-2.6 2.1-.3 0-1.2-.8-.9-1.3l.8-.3c.3-.1 2.2-1.4 2.3-2.5.2-1.7-1.9-1.6-2-1.6-.3 0-.5 0-.8.3-.1.1.3-.5.8-1.4l.4-.7c.1-.2-.3.6 1.2-1.8.1-.2.6-.8 1.3-1.7.6-.8 1.2-1.4 1.2-1.5h-3c-.4.3-1.9 2.3-2.7 3.3-1.5 2.2-2.8 4.5-3.9 7.2-.3.6-1.8 1.4-2.3 1.7-.1.1-.8.2-.8.2-.6.1-1 .2-1.1-.1-.1-.3 0-.6.2-.7 1.7-.3 3.6-2.4 3.6-3.4 0-.8-.9-1.8-2.8-1.1-1.4.5-3 2.1-3.5 3.1 0 .1-.1.2-.1.4-.1.4-.3.7-.3.8-.2.3-1.8.3-1.7.2l.3-.3.2-.3c.2-.2.5-.5.8-1 1.1-1.6 1-4.1-1.1-4.1-.6 0-1.3.1-2.2.4-.4.1-.7.2-.9.1-.5-.2-.4-.9 0-2 .2-.4 1.4-2.7 3-3.6 1.4-.8 2.9-1 3.2-.5 0 1-2.8 2-3.6 2.1l-.1.1 2.5 1.9c.8 0 5.1-3.4 1.8-5.1-3.2-1.6-7.7 1.8-9.2 3.5-1 1.2-1.6 2.3-1.7 3.4-.1 1.2.5 1.9 1.8 2 .3 0 .9 0 1.8-.1.6-.1 1.1-.2 1.3 0 .7.7-.4 2.1-.9 2.6-.9.8-2 1.4-3.4 1.8-.7.2-1.3.2-1.7.1-.1-.1-.2-.2-.2-.4.1-.8 1.8-1.2 2.4-.6.1.1.1.2.1.1l.5-2.7c-2.4-.1-3.6.6-4.3 2.1-.4.8-.2 1.7.3 2.2l.3.2c.2.2.8.3 2.2.4 1.7.1 3.2-.3 4.6-1.1l.9-.5c.1-.1.2-.2.4-.3.2.1.4.3.7.4 1 .3 2 0 2.1 0 0 .3.3.9 1 1.1.9.3 3.1.1 4.7-.7l-.2.9h2.7c.1 0 .3-1.5.3-1.7 0-.1.3.2.3.2l.3.4c.3.3.8 1.1 2.1 1.1H40l.2-.3.7-1.5c.6 1.2 1.3 1.8 2.2 1.7.4 0 .9-.2 1.2-.4.5-.2 1.3-.4 1.3-.4.1.2.1.4.2.5l.1.2c.1.1.6.2 1.1.1l2.8-1.2c-.1.4-.2 1-.3 1.2 0 .1.2.1.2.1H52c.1 0 .2-.5.5-1.1.2-.4.5-.9 1-1.4.5-.6 1.2-1.2 1.6-1.4.5-.2.4.1.2.3-.5.5-1.2 1.3-1.5 2-.4 1.2.4 1.8 1.8 1.4.4-.1.8-.3 1.2-.6.3-.2 1.5-.5 1.5-.4 0 .2.3.8.6 1.1l.2.2c.2.1.6.4.6.4-.7.1-2 .4-2.6.7l-1.1.5-.8.5c-.3.2-.7.5-1 .8-.3.2-.5.4-.7.7l-.2.3c-.1.2-.2.8-.1.9l.1.3c.1.2.7.6 2.4.5 1-.1 1.1 0 2.1-.3l1-.4c1-.5 1.5-.8 2.2-1.7.5-.5 1.2-1.4 1.3-1.4l1.3.2 1.6.2 1.6-2.4h-2.7c-.5.1-.5-.2-.5-.3.1-.3.3-.5.5-.8l.4-.5.3-.3c.8-1.1 1.3-1.7 1.5-1.9l.8-1.1.2-.3.5-.7.2-.4-2.2-.3zm-39.1 3.6c-.1-.5 1.8-3.3 2.6-2.3.1.2 0 .5 0 .5-.1.7-2.5 2.3-2.6 1.8zm7.5-.2c-.1-1.3 1.6-2.9 2.4-2.5.1.1.2.2.2.4 0 1.4-2.6 2.6-2.6 2.1zm8.1 0c-.2-1.3 1.6-2.9 2.3-2.5.1.1.2.2.2.4.2 1.5-2.5 2.6-2.5 2.1zm17.1 6.5c-.3.3-1.2.8-1.6.9-.4.2-1 .2-1.5.2-.3 0-.6-.4-.1-.7l.5-.4c.6-.3 2.1-.8 2.6-.9l1.1-.1c.1.1-.5.6-1 1zm4.3-6.8c-.2.2-.3.4-.4.7-.2.3-.7 1-1 1.2-.3.2-.4.3-.6.2-.5-.2-.4-1-.2-1.5.1-.3.4-.6.7-1l.6-.6c1.6-1.1 2-.5.9 1z"/><path class="st1" d="m94.6 83.3 1.2-1.7c.1-.2 1.5-2.2 3.3-4.8.6-.8 1.3-1.6 1.5-2.1h-2.8l-3 4.4c-1.3 1.8-1.9 2.5-2 2.7-1-.5-2.3-.2-3.7.7l-.1.1s-1 .7-1.6 1.7c-.1.2-.2.5-.4.8-.1.1-.1.2-.2.4-.6.4-1.5.7-1.5.7-.2 0-.4-.1-.4-.1 0-.3.3-.7.7-1.2.3-.4.7-.9 1.1-1.5l.3-.4.5-.7c.2-.3.7-.9.7-.9h-2.4l-.4.4c-.1.1 0 0-.3-.2l-.4-.2c-.6-.1-1-.2-1.7 0-.5.1-1 .3-1.6.7-1.4.9-2.1 1.9-2.5 2.7-1 .7-2.4 1.2-2.4 1.2-.2 0-.4 0-.4-.1-.1-.2.4-.8 1.2-2.2l1.2-1.7h1.9l1-.9-2.4.1s.2-.4.8-1.3c.5-.8.9-1.5 1.5-2.6l.2-.4H79c-.1 0-.2.4-.9 1.4-.3.4-.5.8-.8 1.4-.4.3-1 1.3-1 1.3l-4.4-.1h-.4c-.7 0-1.4.1-2.1.4h-.1c-.7.4-1.1.9-1.2 1.2v.1c-.1.4-.1.5-.1.5-.1.2 0 .4 0 .6 0 .3.3.8.9 1.6.5.6.5 1.1 0 1.2-.4.1-.8 0-1.2-.5-.2-.2-.5-.9-.7-1.7l-1.3 1.2.1.3c.1.2.4.7.6.9.4.4.9.6 1.4.7.6.2.9.3 1.3.3 1.5.2 2.4-.7 2.7-1.3 0-.1.1-.1.1-.2v-.4c.1-.8-.5-1.4-.5-1.4-.1-.1-.1-.2-.2-.3 0 0-.3-.2-.7-.8-.1-.1-.2-.4-.2-.6.1-.8 2.3-1.3 2.1-.6-.1.1-.2.3-.6.6-.2.1-.4.3-.8.5v.2l2.1.1h.3c.6-.7.5-1.4.4-1.6l1.9.1s-2 3-2.7 4.5c0 0-.2.5 0 .8.3.4.8.7 1.7.5.6-.1 1.1-.3 1.6-.6l.6-.2s.8-.4 1.7-.9c-.1.6 0 1 0 1 .4.9 1.4 1 2.8.3l.4-.2h.1c.4.7 1.5.9 2.6.4.6-.2 1.4-.7 1.6-.9l.6-.3c0 .5.1.8.1.8l.2.2c.3.3 1.3.7 2.5-.1.3-.2.7-.4.8-.5.5 1.4 2 1.3 4.5-.3.6-.4 1-.7 1.4-1.1.4-.3.7-.6.8-.9l-.6-.6s-.3.3-.6.5c-.8.6-1.5 1.3-1.9 1-.1-.1-.1-.1-.1-.4 0 .2 0-.4.8-1.7zm-11.9 2c-.4.6-.8 1-1 .7-1-1.6 1.6-3.6 3-3.4-.5.8-1.7 2.2-2 2.7zm8.3-.4c-.3.6-.9 1.4-1.1 1.2-1.1-1.5 1.1-3.5 2.4-3.4-.4.7-1 1.7-1.3 2.2zM124.3 0h111v119.1h-111z"/><g><path d="M184.1 37.6c-.6.5-.7 1.3-.1 1.9.5.6 1.5.6 2.1.1.6-.5.7-1.3.1-1.9-.5-.6-1.5-.6-2.1-.1zm1.5 11.3c-4.4-2.9-6.7-6.7-7.3-11.6 4.9-2.5 9.9-3.8 14.9-3.6 8.2-.3 14.7 1.4 21.8 4.7-1.6.1-3.4.3-4.1 2.3 15.3 12.2 14.6 32.8 3.1 46.7 1.5-7 .7-13.3-4.8-19.8 4.7-.9 7.6-2.3 9.8-6.5 0 3-2.7 6.3-7 7.5 2.1 1.9 4.2 5.4 4.8 9.4 8.8-14.7 2.7-32.1-13.3-40.3-3.8-2-7.8-2.9-11.8-2.9 2.5 3.1 3.3 6.9-.5 10.9 2-3.8 1.1-7.7-1.8-10.8-3.3.3-6.6 1.2-9.7 2.8.1.6.2 1.2.5 1.8.8 1 3.1 2.5 4.7 3.1-1.7-.2-2.6-.3-3.6-.7 1.2 2.2 3.1 4.2 5.4 5.7 7.6 4.9 17.3 2.9 26.2 6.2 3.3 1.2 5.3 2.8 6.7 5.4-2.3-1.6-4.8-2.9-7.4-3.9-3.7-1.4-7.3-1.8-10.9-2.2 1 1.1 1.8 1.9 3.5 2.8-4.7-.2-10.9-.5-14.8-4.8-1.6-.5-3-1.2-4.4-2.2z" style="fill-rule:evenodd;clip-rule:evenodd;fill:#c9404a"/><path class="st0" d="M159.2 72.3c1 0 1.7.1 2.1.2.4.1.6.3.6.7 0 .3-.1.6-.4.8-1-.4-1.9-.7-2.7-.7-.6 0-1 .1-1.2.3-.2.2-.4.6-.4 1s.1.8.4 1c.3.3.8.5 1.6.8 1 .3 1.7.6 2.2 1 .5.4.8 1 .8 1.8 0 .9-.3 1.6-1 2.1-.6.5-1.6.7-2.9.7-.9 0-1.6-.1-2.1-.2s-.7-.4-.7-.7c0-.3.1-.6.4-.8.9.5 1.9.7 2.9.7.7 0 1.2-.1 1.4-.3.3-.2.4-.6.4-1 0-.6-.2-1-.6-1.2-.4-.3-1.1-.6-2-.8-.9-.3-1.5-.6-1.9-1-.4-.4-.6-.9-.6-1.6 0-.8.3-1.5.9-1.9.8-.7 1.7-.9 2.8-.9zM166.7 72.3c.5 0 .8 0 .9.1.1 0 .5 1.3 1.4 3.9.9 2.5 1.4 4.2 1.8 4.9h.6c.1.1.1.3.1.4 0 .1 0 .2-.1.2 0 0-.1.1-.2.1h-2.9c-.1-.2-.1-.3-.1-.4 0-.1 0-.2.1-.2 0 0 .1-.1.2-.1h.4c-.1-.4-.3-1.2-.7-2.4H165c-.3 1.2-.5 1.9-.6 2.4h.6c.1.1.1.3.1.4 0 .1 0 .2-.1.2 0 0-.1.1-.2.1h-2.5c-.1-.2-.1-.3-.1-.4 0-.1 0-.2.1-.2 0 0 .1-.1.2-.1h.4c.3-.8.8-2.4 1.5-4.6.7-2.2 1.1-3.5 1.3-3.8.3-.3.6-.5 1-.5zm-1.4 5.6h2.6c-.8-2.7-1.3-4-1.4-4 0 0-.4 1.3-1.2 4zM174.7 81h.6c1.4 0 2.5-.2 3.4-.5.1.3.2.5.2.8 0 .2-.1.4-.2.4-.1.1-.4.1-.8.1h-5.5c-.1-.2-.1-.3-.1-.4 0-.1 0-.2.1-.2 0 0 .1-.1.2-.1h.5v-4.9c0-1.4 0-2.4-.1-3.1h-.7c-.1-.2-.1-.3-.1-.4 0-.1 0-.2.1-.2 0 0 .1-.1.2-.1h3c.1.1.1.3.1.4 0 .1 0 .2-.1.2 0 0-.1.1-.2.1h-.6v3.2c-.1 2.6 0 4.1 0 4.7zM180.1 72.4h2.8c.2.8.5 1.8.9 3.1.4 1.2.7 2.2.9 3 .2.8.3 1.2.4 1.2l.9-3c.6-2 1-3.4 1.2-4.3h2.8c.1.1.1.3.1.4 0 .1 0 .2-.1.2 0 0-.1.1-.2.1h-.5v4.2c0 1.9.1 3.2.1 3.9h.7c.1.1.1.3.1.4 0 .1 0 .2-.1.2 0 0-.1.1-.2.1h-2.7c-.1-.2-.1-.3-.1-.4 0-.1 0-.2.1-.2 0 0 .1-.1.2-.1h.4v-7.3l-1.2 4.2c-.5 1.4-.8 2.3-.9 2.5-.2.3-.4.4-.7.4-.5 0-.8 0-.8-.1-.1 0-.4-.8-.9-2.4-.6-1.6-1.1-3.2-1.5-4.7v7.4h.6c.1.1.1.3.1.4 0 .1 0 .2-.1.2 0 0-.1.1-.2.1h-2.5c-.1-.2-.1-.3-.1-.4 0-.1 0-.2.1-.2 0 0 .1-.1.2-.1h.5c.1-.6.1-1.9.1-3.9 0-1.9.1-3.3.1-4.2h-.7c-.1-.2-.1-.3-.1-.4 0-.1 0-.2.1-.2 0-.1.1-.1.2-.1zM190.9 77.6c0-1.8.4-3.2 1.1-4 .8-.9 1.8-1.3 3.2-1.3 1.3 0 2.2.3 2.9.9.7.6 1 1.8 1 3.4 0 1.8-.4 3.2-1.1 4-.8.9-1.8 1.3-3.2 1.3-1.3 0-2.2-.3-2.9-.9-.7-.6-1-1.7-1-3.4zm1.7-.6c0 1.5.2 2.6.6 3.2.4.6 1 .9 1.9.9.8 0 1.3-.3 1.7-.9.4-.6.6-1.5.6-2.8 0-1.6-.2-2.6-.6-3.2-.4-.6-1-.8-1.9-.8-.8 0-1.3.3-1.7.9-.4.4-.6 1.4-.6 2.7zM199.9 72.4h2.2c.7 1.3 1.4 2.6 2.1 3.7.7 1.1 1.4 2.4 2.1 4v-6.9h-.7c-.1-.2-.1-.3-.1-.4 0-.1 0-.2.1-.2 0 0 .1-.1.2-.1h2.6c.1.1.1.3.1.4 0 .1 0 .2-.1.2 0 0-.1.1-.2.1h-.6v8.2c0 .3 0 .4-.1.5-.1.1-.3.1-.6.1-.6 0-.9 0-1-.1-.1 0-.6-.9-1.7-2.6-1-1.7-1.9-3.2-2.6-4.7v6.5h.7c.1.1.1.3.1.4 0 .1 0 .2-.1.2 0 0-.1.1-.2.1h-2.6c-.1-.2-.1-.3-.1-.4 0-.1 0-.2.1-.2 0 0 .1-.1.2-.1h.6v-4.9c0-1.4 0-2.4-.1-3.1h-.7c-.1-.2-.1-.3-.1-.4 0-.1 0-.2.1-.2.2-.1.3-.1.4-.1z"/><g><path class="st0" d="M140.7 60.1c1 0 1.7.1 2.1.2.4.1.6.3.6.7 0 .3-.1.6-.4.8-1-.4-1.9-.7-2.7-.7-.6 0-1 .1-1.2.3-.2.2-.4.6-.4 1s.1.8.4 1c.3.3.8.5 1.6.8 1 .3 1.7.6 2.2 1 .5.4.8 1 .8 1.8 0 .9-.3 1.6-1 2.1-.6.5-1.6.7-2.9.7-.9 0-1.6-.1-2.1-.2s-.7-.4-.7-.7c0-.3.1-.6.4-.8.9.5 1.9.7 2.9.7.7 0 1.2-.1 1.4-.3.3-.2.4-.6.4-1 0-.6-.2-1-.6-1.2-.4-.3-1.1-.6-2-.8-.9-.3-1.5-.6-1.9-1-.4-.4-.6-.9-.6-1.6 0-.8.3-1.5.9-1.9.8-.7 1.7-.9 2.8-.9zM150.1 60.2h2.5c.1.1.1.3.1.4 0 .1 0 .2-.1.2 0 0-.1.1-.2.1h-.4l-3 3.2c1.3 2.1 2.1 3.3 2.4 3.7.3.4.5.7.7.9.2.2.4.2.7.2.1.3.1.5 0 .7-.1.1-.4.2-.8.2-.6 0-.9-.1-1.1-.2-.2-.1-.4-.4-.6-.8-.2-.4-.9-1.7-2.1-3.8l-1.2 1.5V69h.7c.1.1.1.3.1.4 0 .1 0 .2-.1.2 0 0-.1.1-.2.1h-3c-.1-.2-.1-.3-.1-.4 0-.1 0-.2.1-.2 0 0 .1-.1.2-.1h.6c0-.6.1-2.3.1-4.9 0-1.4 0-2.4-.1-3.1h-.9c-.1-.2-.1-.3-.1-.4 0-.1 0-.2.1-.2 0 0 .1-.1.2-.1h3c.1.1.1.3.1.4 0 .1 0 .2-.1.2 0 0-.1.1-.2.1h-.5v4.1c.5-.6 1.1-1.2 1.8-2 .7-.7 1.3-1.5 1.8-2.2h-.6c-.1-.2-.1-.3-.1-.4 0-.1 0-.2.1-.2s.1-.1.2-.1zM157.6 60.1c.5 0 .8 0 .9.1.1 0 .5 1.3 1.4 3.9.9 2.5 1.4 4.2 1.8 4.9h.6c.1.1.1.3.1.4 0 .1 0 .2-.1.2 0 0-.1.1-.2.1h-2.9c-.1-.2-.1-.3-.1-.4 0-.1 0-.2.1-.2 0 0 .1-.1.2-.1h.4c-.1-.4-.3-1.2-.7-2.4H156c-.3 1.2-.5 1.9-.6 2.4h.6c.1.1.1.3.1.4 0 .1 0 .2-.1.2 0 0-.1.1-.2.1h-2.5c-.1-.2-.1-.3-.1-.4 0-.1 0-.2.1-.2 0 0 .1-.1.2-.1h.4c.3-.8.8-2.4 1.5-4.6.7-2.2 1.1-3.5 1.3-3.8.2-.3.5-.5.9-.5zm-1.4 5.6h2.6c-.8-2.7-1.3-4-1.4-4s-.4 1.3-1.2 4zM168.2 68.5v-1.8c0-.3 0-.5-.1-.6 0-.1-.1-.2-.2-.2h-.3c-.1-.1-.1-.2-.1-.4 0-.1 0-.2.1-.3.1-.1.2-.1.4-.1h1.1c.2 0 .4 0 .5.1.1.1.1.2.1.5v1.7c0 .5 0 1.2.1 2.2h-.7c-.1 0-.2-.2-.4-.5-.9.4-1.8.6-2.6.6-1.3 0-2.3-.3-2.9-1-.6-.7-.9-1.8-.9-3.4 0-1.8.4-3.1 1.1-4 .8-.9 1.9-1.3 3.3-1.3.9 0 1.5.1 1.9.2.4.1.6.3.6.6s-.1.6-.3.9c-.9-.4-1.7-.7-2.5-.7s-1.4.3-1.8.8c-.4.5-.6 1.5-.6 2.9 0 1.5.2 2.6.6 3.2.4.6 1.1.9 2 .9.6 0 1.1-.1 1.6-.3zM171.1 60.2h5.9c.3 0 .4 0 .5.1.1.1.1.2.1.4 0 .3-.1.6-.3.9-.9-.4-2.1-.5-3.6-.5h-.6v3.1h3.6c.1.2.1.4.1.6 0 .1 0 .2-.1.3 0 0-.1.1-.3.1H173v3.7h1c1.5 0 2.6-.2 3.5-.5.1.3.2.5.2.8 0 .2-.1.4-.2.4-.1.1-.4.1-.8.1h-6c-.1-.2-.1-.3-.1-.4 0-.1 0-.2.1-.2 0 0 .1-.1.2-.1h.5v-8h-.7c-.1-.2-.1-.3-.1-.4 0-.1 0-.2.1-.2.2-.2.2-.2.4-.2zM181.1 69h1c.1.1.1.3.1.4 0 .1 0 .2-.1.2 0 0-.1.1-.2.1h-3.3c-.1-.2-.1-.3-.1-.4 0-.1 0-.2.1-.2 0 0 .1-.1.2-.1h.6c0-.6.1-2.3.1-4.9 0-1.4 0-2.4-.1-3.1h-.8c-.1-.2-.1-.3-.1-.4 0-.1 0-.2.1-.2 0 0 .1-.1.2-.1h3c1.4 0 2.4.2 3 .6.6.4.9 1 .9 1.8 0 1.3-.8 2.2-2.3 2.6.4.1.8.4 1.1.7.3.4.6.9.9 1.5.3.7.5 1.1.7 1.2.2.2.4.2.7.2.1.3.1.6 0 .7-.1.1-.4.2-.9.2s-.9-.1-1.2-.2c-.2-.1-.5-.7-.8-1.5-.3-.9-.5-1.5-.8-1.8-.3-.4-.7-.5-1.3-.5-.3 0-.6 0-.9.1.2 1.5.2 2.5.2 3.1zm0-4.2h.6c.8 0 1.4-.1 1.8-.4.4-.3.6-.7.6-1.3 0-.7-.2-1.1-.6-1.4-.4-.3-.9-.5-1.6-.5-.3 0-.6 0-.8.1 0 .4-.1 1.3-.1 2.8v.7zM191.7 60.1c.5 0 .8 0 .9.1.1 0 .5 1.3 1.4 3.9.9 2.5 1.4 4.2 1.8 4.9h.6c.1.1.1.3.1.4 0 .1 0 .2-.1.2 0 0-.1.1-.2.1h-2.9c-.1-.2-.1-.3-.1-.4 0-.1 0-.2.1-.2 0 0 .1-.1.2-.1h.4c-.1-.4-.3-1.2-.7-2.4H190c-.3 1.2-.5 1.9-.6 2.4h.6c.1.1.1.3.1.4 0 .1 0 .2-.1.2 0 0-.1.1-.2.1h-2.5c-.1-.2-.1-.3-.1-.4 0-.1 0-.2.1-.2 0 0 .1-.1.2-.1h.4c.3-.8.8-2.4 1.5-4.6.7-2.2 1.1-3.5 1.3-3.8.2-.3.6-.5 1-.5zm-1.4 5.6h2.6c-.8-2.7-1.3-4-1.4-4s-.4 1.3-1.2 4zM202.7 60.2h2.5c.1.1.1.3.1.4 0 .1 0 .2-.1.2 0 0-.1.1-.2.1h-.4l-3 3.2c1.3 2.1 2.1 3.3 2.4 3.7.3.4.5.7.7.9.2.2.4.2.7.2.1.3.1.5 0 .7-.1.1-.4.2-.8.2-.6 0-.9-.1-1.1-.2-.2-.1-.4-.4-.6-.8-.2-.4-.9-1.7-2.1-3.8l-1.2 1.5V69h.7c.1.1.1.3.1.4 0 .1 0 .2-.1.2 0 0-.1.1-.2.1h-3c-.1-.2-.1-.3-.1-.4 0-.1 0-.2.1-.2 0 0 .1-.1.2-.1h.6c0-.6.1-2.3.1-4.9 0-1.4 0-2.4-.1-3.1h-.9c-.1-.2-.1-.3-.1-.4 0-.1 0-.2.1-.2 0 0 .1-.1.2-.1h3c.1.1.1.3.1.4 0 .1 0 .2-.1.2 0 0-.1.1-.2.1h-.5v4.1c.5-.6 1.1-1.2 1.8-2 .7-.7 1.3-1.5 1.8-2.2h-.6c-.1-.2-.1-.3-.1-.4 0-.1 0-.2.1-.2 0 0 .1-.1.2-.1z"/></g></g></svg>